<svg width="199" height="199" viewBox="0 0 199 199" fill="none" xmlns="http://www.w3.org/2000/svg">
<path d="M99.5568 186.537C147.407 186.537 186.242 147.702 186.242 99.852C186.242 52.0016 147.407 13.1665 99.5568 13.1665C51.7064 13.1665 12.8714 52.0016 12.8714 99.852C12.8714 147.702 51.7064 186.537 99.5568 186.537Z" stroke="white" stroke-width="5" stroke-miterlimit="10" stroke-linecap="round" stroke-linejoin="round"/>
<path d="M53.1929 150.773C49.5274 147.009 44.9702 141.56 41.0074 134.526C38.0354 129.176 36.054 124.223 34.7661 120.062C34.7661 120.062 31.695 109.957 31.695 99.8517C31.695 62.4036 62.1092 31.9894 99.5573 31.9894C139.284 31.9894 165.934 67.5552 167.42 99.8517C168.708 126.898 152.064 146.315 147.408 151.368C146.12 146.414 143.148 137.597 135.916 128.978C129.674 121.449 122.739 117.288 118.479 115.009C114.12 122.439 106.294 126.997 98.5666 126.402C93.7122 126.105 88.0653 123.727 84.3006 119.368C83.31 118.279 82.7155 117.288 82.2202 116.495C77.663 119.368 71.8179 123.925 65.9729 130.464C59.3352 137.993 55.4715 145.423 53.1929 150.773Z" stroke="white" stroke-width="5" stroke-miterlimit="10" stroke-linecap="round" stroke-linejoin="round"/>
<path d="M100.053 52.794C90.1457 52.5959 83.409 59.4316 81.2294 61.7102C69.4402 73.7967 71.9169 91.3319 72.3132 94.403C72.7095 97.276 74.9881 111.047 86.1829 120.161C89.254 122.638 93.8112 126.303 100.053 126.105C105.898 126.006 109.959 122.638 112.932 120.161C123.73 111.245 126.207 98.3658 126.801 94.403C128.287 84.0008 125.711 75.9762 124.82 73.5985C123.73 70.5274 122.046 66.0693 117.885 61.7102C116.003 59.7289 109.662 52.9922 100.053 52.794Z" stroke="white" stroke-width="5" stroke-miterlimit="10" stroke-linecap="round" stroke-linejoin="round"/>
<path d="M133.934 158.798C135.717 158.005 137.501 157.114 139.185 156.123" stroke="white" stroke-width="5" stroke-miterlimit="10" stroke-linecap="round" stroke-linejoin="round"/>
<path d="M117.687 163.751C118.777 163.553 119.768 163.256 120.857 162.959" stroke="white" stroke-width="5" stroke-miterlimit="10" stroke-linecap="round" stroke-linejoin="round"/>
<path d="M100.35 165.535C101.539 165.535 102.728 165.535 103.916 165.535" stroke="white" stroke-width="5" stroke-miterlimit="10" stroke-linecap="round" stroke-linejoin="round"/>
<path d="M82.7155 162.761C84.0034 163.058 85.2913 163.454 86.5792 163.653" stroke="white" stroke-width="5" stroke-miterlimit="10" stroke-linecap="round" stroke-linejoin="round"/>
<path d="M64.8831 156.222C66.4682 157.114 68.1523 157.906 69.8365 158.6" stroke="white" stroke-width="5" stroke-miterlimit="10" stroke-linecap="round" stroke-linejoin="round"/>
</svg>
