<svg width="199" height="200" viewBox="0 0 199 200" fill="none" xmlns="http://www.w3.org/2000/svg">
<path d="M133.096 58.8519H34.0271V176.744H133.096V58.8519Z" stroke="white" stroke-width="5" stroke-miterlimit="10" stroke-linecap="round" stroke-linejoin="round"/>
<path d="M22.1391 177.735C78.3112 177.735 134.384 177.735 190.557 177.735Z" fill="white"/>
<path d="M22.1391 177.735C78.3112 177.735 134.384 177.735 190.557 177.735" stroke="white" stroke-width="5" stroke-miterlimit="10" stroke-linecap="round" stroke-linejoin="round"/>
<path d="M156.873 109.377C153.901 109.377 150.929 109.377 147.957 109.377Z" fill="white"/>
<path d="M156.873 109.377C153.901 109.377 150.929 109.377 147.957 109.377" stroke="white" stroke-width="5" stroke-miterlimit="10" stroke-linecap="round" stroke-linejoin="round"/>
<path d="M156.873 122.256C153.901 122.256 150.929 122.256 147.957 122.256Z" fill="white"/>
<path d="M156.873 122.256C153.901 122.256 150.929 122.256 147.957 122.256" stroke="white" stroke-width="5" stroke-miterlimit="10" stroke-linecap="round" stroke-linejoin="round"/>
<path d="M163.808 158.912C160.836 158.912 157.864 158.912 154.892 158.912Z" fill="white"/>
<path d="M163.808 158.912C160.836 158.912 157.864 158.912 154.892 158.912" stroke="white" stroke-width="5" stroke-miterlimit="10" stroke-linecap="round" stroke-linejoin="round"/>
<path d="M150.929 96.4983C161.826 96.4983 194.519 96.4983 183.622 96.4983C172.724 96.4983 161.826 96.4983 150.929 96.4983Z" stroke="white" stroke-width="5" stroke-miterlimit="10" stroke-linecap="round" stroke-linejoin="round"/>
<path d="M150.929 96.4983C145.282 96.4983 139.734 96.4983 134.087 96.4983C134.087 92.2384 134.087 87.8793 134.087 83.6194C139.734 83.6194 145.282 83.6194 150.929 83.6194C150.929 87.8793 150.929 92.2384 150.929 96.4983Z" stroke="white" stroke-width="5" stroke-miterlimit="10" stroke-linecap="round" stroke-linejoin="round"/>
<path d="M142.012 140.089H177.677" stroke="white" stroke-width="5" stroke-miterlimit="10" stroke-linecap="round" stroke-linejoin="round"/>
<path d="M177.677 177.735V140.089V97.4891" stroke="white" stroke-width="5" stroke-miterlimit="10" stroke-linecap="round" stroke-linejoin="round"/>
<path d="M32.4421 57.8615H136.663C139.635 57.8615 142.012 55.4839 142.012 52.5118V50.3323C142.012 47.3602 139.635 44.9825 136.663 44.9825H32.4421C29.47 44.9825 27.0924 47.3602 27.0924 50.3323V52.5118C27.0924 55.4839 29.47 57.8615 32.4421 57.8615Z" stroke="white" stroke-width="5" stroke-miterlimit="10" stroke-linecap="round" stroke-linejoin="round"/>
<path d="M47.8968 27.1499L34.0271 44.9823" stroke="white" stroke-width="5" stroke-miterlimit="10" stroke-linecap="round" stroke-linejoin="round"/>
<path d="M119.722 27.5461L134.582 44.586" stroke="white" stroke-width="5" stroke-miterlimit="10" stroke-linecap="round" stroke-linejoin="round"/>
<path d="M119.227 27.1499H47.8969" stroke="white" stroke-width="5" stroke-miterlimit="10" stroke-linecap="round" stroke-linejoin="round"/>
<path d="M65.7294 37.0568V4.36401" stroke="white" stroke-width="5" stroke-miterlimit="10" stroke-linecap="round" stroke-linejoin="round"/>
<path d="M78.6088 19.2242V38.0474" stroke="white" stroke-width="5" stroke-miterlimit="10" stroke-linecap="round" stroke-linejoin="round"/>
<path d="M71.6738 72.7217H79.5993" stroke="white" stroke-width="5" stroke-miterlimit="10" stroke-linecap="round" stroke-linejoin="round"/>
<path d="M71.6738 84.6097H79.5993" stroke="white" stroke-width="5" stroke-miterlimit="10" stroke-linecap="round" stroke-linejoin="round"/>
<path d="M71.6738 96.4983H79.5993" stroke="white" stroke-width="5" stroke-miterlimit="10" stroke-linecap="round" stroke-linejoin="round"/>
<path d="M51.8596 72.7217H59.7851" stroke="white" stroke-width="5" stroke-miterlimit="10" stroke-linecap="round" stroke-linejoin="round"/>
<path d="M51.8596 84.6097H59.7851" stroke="white" stroke-width="5" stroke-miterlimit="10" stroke-linecap="round" stroke-linejoin="round"/>
<path d="M51.8596 96.4983H59.7851" stroke="white" stroke-width="5" stroke-miterlimit="10" stroke-linecap="round" stroke-linejoin="round"/>
<path d="M109.32 72.7217H117.245" stroke="white" stroke-width="5" stroke-miterlimit="10" stroke-linecap="round" stroke-linejoin="round"/>
<path d="M109.32 84.6097H117.245" stroke="white" stroke-width="5" stroke-miterlimit="10" stroke-linecap="round" stroke-linejoin="round"/>
<path d="M109.32 96.4983H117.245" stroke="white" stroke-width="5" stroke-miterlimit="10" stroke-linecap="round" stroke-linejoin="round"/>
<path d="M89.5062 72.7217H97.4317" stroke="white" stroke-width="5" stroke-miterlimit="10" stroke-linecap="round" stroke-linejoin="round"/>
<path d="M89.5062 84.6097H97.4317" stroke="white" stroke-width="5" stroke-miterlimit="10" stroke-linecap="round" stroke-linejoin="round"/>
<path d="M89.5062 96.4983H97.4317" stroke="white" stroke-width="5" stroke-miterlimit="10" stroke-linecap="round" stroke-linejoin="round"/>
<path d="M71.6738 133.154H79.5993" stroke="white" stroke-width="5" stroke-miterlimit="10" stroke-linecap="round" stroke-linejoin="round"/>
<path d="M51.8596 133.154H59.7851" stroke="white" stroke-width="5" stroke-miterlimit="10" stroke-linecap="round" stroke-linejoin="round"/>
<path d="M109.32 133.154H117.245" stroke="white" stroke-width="5" stroke-miterlimit="10" stroke-linecap="round" stroke-linejoin="round"/>
<path d="M109.32 145.042H117.245" stroke="white" stroke-width="5" stroke-miterlimit="10" stroke-linecap="round" stroke-linejoin="round"/>
<path d="M109.32 156.931H117.245" stroke="white" stroke-width="5" stroke-miterlimit="10" stroke-linecap="round" stroke-linejoin="round"/>
<path d="M89.5062 133.154H97.4317" stroke="white" stroke-width="5" stroke-miterlimit="10" stroke-linecap="round" stroke-linejoin="round"/>
<path d="M89.5062 145.042H97.4317" stroke="white" stroke-width="5" stroke-miterlimit="10" stroke-linecap="round" stroke-linejoin="round"/>
<path d="M89.5062 156.931H97.4317" stroke="white" stroke-width="5" stroke-miterlimit="10" stroke-linecap="round" stroke-linejoin="round"/>
<path d="M77.6175 176.744H51.8596V154.85C51.8596 151.581 54.4354 149.005 57.7046 149.005H71.7724C75.0417 149.005 77.6175 151.581 77.6175 154.85V176.744Z" stroke="white" stroke-width="5" stroke-miterlimit="10" stroke-linecap="round" stroke-linejoin="round"/>
<path d="M34.0271 115.322H96.4406" stroke="white" stroke-width="5" stroke-miterlimit="10" stroke-linecap="round" stroke-linejoin="round"/>
<path d="M109.32 115.322H122.199" stroke="white" stroke-width="5" stroke-miterlimit="10" stroke-linecap="round" stroke-linejoin="round"/>
</svg>
