<svg width="199" height="199" viewBox="0 0 199 199" fill="none" xmlns="http://www.w3.org/2000/svg">
<path d="M96.2875 52.7004C108.051 52.7004 117.587 43.1641 117.587 31.4006C117.587 19.637 108.051 10.1007 96.2875 10.1007C84.5239 10.1007 74.9877 19.637 74.9877 31.4006C74.9877 43.1641 84.5239 52.7004 96.2875 52.7004Z" stroke="white" stroke-width="5" stroke-miterlimit="10" stroke-linecap="round" stroke-linejoin="round"/>
<path d="M145.327 183.472C145.327 178.221 145.327 172.871 145.327 167.621C145.426 167.224 145.723 164.054 143.345 161.676C141.859 160.19 140.076 159.794 139.383 159.695C134.429 159.695 129.476 159.695 124.522 159.695C124.225 159.596 123.333 159.497 122.541 158.704C121.352 157.515 121.55 155.93 121.55 155.732C121.55 127.696 121.55 99.56 121.55 71.5235C121.55 70.929 121.649 69.2449 120.56 67.5607C118.875 64.9849 116.002 64.5886 115.606 64.5886C97.0802 64.5886 78.6533 64.5886 60.1274 64.5886C59.2358 64.7868 57.7497 65.2821 56.1646 66.57C54.3814 67.957 53.5888 69.6411 53.1926 70.5328C53.1926 76.7741 53.1926 83.1145 53.1926 89.3559C53.2916 89.9503 53.5888 91.8326 55.1739 93.3187C57.1553 95.3 59.6321 95.3 60.1274 95.3C64.3874 95.3 68.7464 95.3 73.0064 95.3C73.3036 95.3 75.5822 95.3991 76.9691 97.2814C77.8608 98.4703 77.9598 99.7582 77.9598 100.254C77.6626 118.383 77.2664 136.612 76.9691 154.742C76.9691 155.237 76.8701 156.525 75.9785 157.714C74.5915 159.596 72.3129 159.695 72.0157 159.695C67.7557 159.695 63.3967 159.695 59.1367 159.695C58.5423 159.794 56.7591 160.091 55.1739 161.676C54.7777 162.073 53.4898 163.46 53.1926 165.639C53.1926 171.88 53.1926 178.221 53.1926 184.462C53.4898 185.156 54.0842 186.345 55.1739 187.434C55.6693 187.93 56.66 188.821 58.146 189.416C84.8947 189.713 111.643 190.109 138.392 190.406C139.185 190.208 141.562 189.614 143.345 187.434C144.633 185.948 145.129 184.363 145.327 183.472Z" stroke="white" stroke-width="5" stroke-miterlimit="10" stroke-linecap="round" stroke-linejoin="round"/>
<path d="M68.548 169.404V177.329" stroke="white" stroke-width="5" stroke-miterlimit="10" stroke-linecap="round" stroke-linejoin="round"/>
<path d="M83.9042 169.404V177.329" stroke="white" stroke-width="5" stroke-miterlimit="10" stroke-linecap="round" stroke-linejoin="round"/>
<path d="M99.2598 169.404V177.329" stroke="white" stroke-width="5" stroke-miterlimit="10" stroke-linecap="round" stroke-linejoin="round"/>
<path d="M114.615 169.404V177.329" stroke="white" stroke-width="5" stroke-miterlimit="10" stroke-linecap="round" stroke-linejoin="round"/>
<path d="M129.971 169.404V177.329" stroke="white" stroke-width="5" stroke-miterlimit="10" stroke-linecap="round" stroke-linejoin="round"/>
</svg>
