<svg width="199" height="200" viewBox="0 0 199 200" fill="none" xmlns="http://www.w3.org/2000/svg">
<path d="M157.017 36.6086H170.292C176.038 36.6086 180.794 41.364 180.794 47.11V66.3294" stroke="white" stroke-width="6" stroke-miterlimit="10" stroke-linecap="round" stroke-linejoin="round"/>
<path d="M107.483 36.6086H141.166" stroke="white" stroke-width="6" stroke-miterlimit="10" stroke-linecap="round" stroke-linejoin="round"/>
<path d="M57.9481 36.6086H91.6316" stroke="white" stroke-width="6" stroke-miterlimit="10" stroke-linecap="round" stroke-linejoin="round"/>
<path d="M18.3205 66.3294V47.11C18.3205 41.364 23.0758 36.6086 28.8218 36.6086H42.0971" stroke="white" stroke-width="6" stroke-miterlimit="10" stroke-linecap="round" stroke-linejoin="round"/>
<path d="M180.794 76.2363V170.748C180.794 176.494 176.039 181.25 170.293 181.25H28.8218C23.0758 181.25 18.3205 176.494 18.3205 170.748V76.2363" stroke="white" stroke-width="6" stroke-miterlimit="10" stroke-linecap="round" stroke-linejoin="round"/>
<path d="M42.0974 36.6086C42.0974 32.0514 42.0974 27.2961 42.0974 22.7389C43.088 19.1725 46.4564 16.7948 50.0229 16.7948C53.5894 16.7948 56.9577 19.1725 57.9484 22.7389C57.9484 27.2961 57.9484 32.0514 57.9484 36.6086C57.9484 41.9583 57.9484 47.1099 57.9484 52.4597C56.9577 56.0262 53.5894 58.4038 50.0229 58.4038C46.4564 58.4038 43.088 56.0262 42.0974 52.4597C42.0974 47.1099 42.0974 41.9583 42.0974 36.6086Z" stroke="white" stroke-width="6" stroke-miterlimit="10" stroke-linecap="round" stroke-linejoin="round"/>
<path d="M91.6315 36.6086C91.6315 32.0514 91.6315 27.2961 91.6315 22.7389C92.6222 19.1725 95.9905 16.7948 99.557 16.7948C103.123 16.7948 106.492 19.1725 107.483 22.7389C107.483 27.2961 107.483 32.0514 107.483 36.6086C107.483 41.9583 107.483 47.1099 107.483 52.4597C106.492 56.0262 103.123 58.4038 99.557 58.4038C95.9905 58.4038 92.6222 56.0262 91.6315 52.4597C91.6315 47.1099 91.6315 41.9583 91.6315 36.6086Z" stroke="white" stroke-width="6" stroke-miterlimit="10" stroke-linecap="round" stroke-linejoin="round"/>
<path d="M141.166 36.6086C141.166 32.0514 141.166 27.2961 141.166 22.7389C142.157 19.1725 145.525 16.7948 149.092 16.7948C152.658 16.7948 156.027 19.1725 157.017 22.7389C157.017 27.2961 157.017 32.0514 157.017 36.6086C157.017 41.9583 157.017 47.1099 157.017 52.4597C156.027 56.0262 152.658 58.4038 149.092 58.4038C145.525 58.4038 142.157 56.0262 141.166 52.4597C141.166 47.1099 141.166 41.9583 141.166 36.6086Z" stroke="white" stroke-width="6" stroke-miterlimit="10" stroke-linecap="round" stroke-linejoin="round"/>
<path d="M30.2085 161.436H166.924" stroke="white" stroke-width="6" stroke-miterlimit="10" stroke-linecap="round" stroke-linejoin="round"/>
<path d="M42.0974 118.836V90.1061H70.4311H98.5667H126.9H155.036V118.836V147.566H126.9H98.5667H70.4311H42.0974V118.836Z" stroke="white" stroke-width="6" stroke-miterlimit="10" stroke-linecap="round" stroke-linejoin="round"/>
<path d="M42.0974 118.836H70.4311H98.5667H126.9H155.036" stroke="white" stroke-width="6" stroke-miterlimit="10" stroke-linecap="round" stroke-linejoin="round"/>
<path d="M126.9 90.1061V118.836V147.566" stroke="white" stroke-width="6" stroke-miterlimit="10" stroke-linecap="round" stroke-linejoin="round"/>
<path d="M98.5663 90.1061V118.836V147.566" stroke="white" stroke-width="6" stroke-miterlimit="10" stroke-linecap="round" stroke-linejoin="round"/>
<path d="M70.4308 90.1061V118.836V147.566" stroke="white" stroke-width="6" stroke-miterlimit="10" stroke-linecap="round" stroke-linejoin="round"/>
<path d="M18.3205 76.2361V66.3292" stroke="white" stroke-width="6" stroke-miterlimit="10" stroke-linecap="round" stroke-linejoin="round"/>
<path d="M34.9641 76.2361V66.3292" stroke="white" stroke-width="6" stroke-miterlimit="10" stroke-linecap="round" stroke-linejoin="round"/>
<path d="M51.6078 76.2361V66.3292" stroke="white" stroke-width="6" stroke-miterlimit="10" stroke-linecap="round" stroke-linejoin="round"/>
<path d="M68.2513 76.2361V66.3292" stroke="white" stroke-width="6" stroke-miterlimit="10" stroke-linecap="round" stroke-linejoin="round"/>
<path d="M82.9138 76.2361V66.3292" stroke="white" stroke-width="6" stroke-miterlimit="10" stroke-linecap="round" stroke-linejoin="round"/>
<path d="M99.5574 76.2361V66.3292" stroke="white" stroke-width="6" stroke-miterlimit="10" stroke-linecap="round" stroke-linejoin="round"/>
<path d="M116.201 76.2361V66.3292" stroke="white" stroke-width="6" stroke-miterlimit="10" stroke-linecap="round" stroke-linejoin="round"/>
<path d="M132.845 76.2361V66.3292" stroke="white" stroke-width="6" stroke-miterlimit="10" stroke-linecap="round" stroke-linejoin="round"/>
<path d="M149.488 76.2361V66.3292" stroke="white" stroke-width="6" stroke-miterlimit="10" stroke-linecap="round" stroke-linejoin="round"/>
<path d="M166.132 76.2361V66.3292" stroke="white" stroke-width="6" stroke-miterlimit="10" stroke-linecap="round" stroke-linejoin="round"/>
<path d="M180.794 76.2361V66.3292" stroke="white" stroke-width="6" stroke-miterlimit="10" stroke-linecap="round" stroke-linejoin="round"/>
</svg>
