<svg width="199" height="200" viewBox="0 0 199 200" fill="none" xmlns="http://www.w3.org/2000/svg">
<path d="M98.7638 5.44811C134.627 5.1509 162.366 35.1688 164.149 67.8616C165.635 94.3131 149.983 119.873 124.522 132.257C124.522 142.163 124.522 152.07 124.522 161.977C124.522 163.166 124.225 167.921 120.559 171.884C116.299 176.54 110.652 176.838 109.661 176.838C109.661 181.098 109.661 185.457 109.661 189.717C109.067 190.311 105.401 193.877 99.7545 193.679C93.8103 193.481 90.3429 189.32 89.8476 188.726C89.8476 184.763 89.8476 180.8 89.8476 176.838C88.3615 176.739 83.9034 176.243 79.9407 172.875C75.0863 168.813 74.1947 163.265 73.9965 161.977C73.9965 152.07 73.9965 142.163 73.9965 132.257C48.932 119.972 33.2791 94.9075 34.3689 68.8523C35.6568 36.2586 62.9008 5.74532 98.7638 5.44811Z" stroke="white" stroke-width="5" stroke-miterlimit="10" stroke-linecap="round" stroke-linejoin="round"/>
<path d="M89.848 176.838H109.662" stroke="white" stroke-width="5" stroke-miterlimit="10" stroke-linecap="round" stroke-linejoin="round"/>
<path d="M74.9877 158.015L124.522 148.108" stroke="white" stroke-width="5" stroke-miterlimit="10" stroke-linecap="round" stroke-linejoin="round"/>
<path d="M103.717 164.949L122.54 160.987" stroke="white" stroke-width="5" stroke-miterlimit="10" stroke-linecap="round" stroke-linejoin="round"/>
<path d="M73.9965 142.163H124.522" stroke="white" stroke-width="5" stroke-miterlimit="10" stroke-linecap="round" stroke-linejoin="round"/>
<path d="M85.6533 62.1202L99.9859 75.5842" stroke="white" stroke-width="5" stroke-miterlimit="10" stroke-linecap="round" stroke-linejoin="round"/>
<path d="M113.882 62.1678L100.25 75.2918" stroke="white" stroke-width="5" stroke-miterlimit="10" stroke-linecap="round" stroke-linejoin="round"/>
<path d="M91.8289 83.7126V139.191" stroke="white" stroke-width="5" stroke-miterlimit="10" stroke-linecap="round" stroke-linejoin="round"/>
<path d="M107.68 83.7126V139.191" stroke="white" stroke-width="5" stroke-miterlimit="10" stroke-linecap="round" stroke-linejoin="round"/>
<path d="M114.119 62.4128L122.045 70.3384" stroke="white" stroke-width="5" stroke-miterlimit="10" stroke-linecap="round" stroke-linejoin="round"/>
<path d="M85.3895 61.9175L76.9686 70.3384" stroke="white" stroke-width="5" stroke-miterlimit="10" stroke-linecap="round" stroke-linejoin="round"/>
<path d="M76.9686 70.8337L91.829 83.7127" stroke="white" stroke-width="5" stroke-miterlimit="10" stroke-linecap="round" stroke-linejoin="round"/>
<path d="M122.045 70.3381L108.176 83.2171" stroke="white" stroke-width="5" stroke-miterlimit="10" stroke-linecap="round" stroke-linejoin="round"/>
</svg>
