<svg width="199" height="199" viewBox="0 0 199 199" fill="none" xmlns="http://www.w3.org/2000/svg">
<path d="M179.163 141.367C179.163 101.145 179.163 60.7251 179.163 20.5031H26.597V175.051C65.6302 175.645 104.465 176.438 143.499 177.032C155.387 165.144 167.275 153.256 179.163 141.367Z" stroke="white" stroke-width="5" stroke-miterlimit="10" stroke-linecap="round" stroke-linejoin="round"/>
<path d="M179.163 141.367C167.275 141.367 155.387 141.367 143.498 141.367C143.498 153.256 143.498 165.144 143.498 177.032C155.387 165.144 167.275 153.256 179.163 141.367Z" stroke="white" stroke-width="5" stroke-miterlimit="10" stroke-linecap="round" stroke-linejoin="round"/>
<path d="M40.4668 131.46H127.648" stroke="white" stroke-width="5" stroke-miterlimit="10" stroke-linecap="round" stroke-linejoin="round"/>
<path d="M40.4668 119.572H109.815" stroke="white" stroke-width="5" stroke-miterlimit="10" stroke-linecap="round" stroke-linejoin="round"/>
<path d="M121.703 119.572H141.517" stroke="white" stroke-width="5" stroke-miterlimit="10" stroke-linecap="round" stroke-linejoin="round"/>
<path d="M70.1873 52.2051C65.432 52.007 60.8749 54.3846 58.2991 58.1492C55.9214 61.7157 56.1195 65.4804 56.3177 68.0562C56.3177 69.8394 56.5158 72.8115 58.2991 75.9817C59.0916 77.3686 62.2618 83.5109 68.206 83.9072C75.3389 84.5016 79.698 76.5761 80.0943 75.9817C81.4812 73.604 81.6794 71.2264 82.0756 68.0562C82.4719 64.0934 82.8682 62.3101 82.0756 60.1306C80.4905 55.7716 75.3389 52.4032 70.1873 52.2051Z" stroke="white" stroke-width="5" stroke-miterlimit="10" stroke-linecap="round" stroke-linejoin="round"/>
<path d="M40.4668 103.721C41.0612 100.749 42.6463 94.0122 48.3923 87.87C52.7514 83.1147 57.5067 80.9351 60.2806 79.9445" stroke="white" stroke-width="5" stroke-miterlimit="10" stroke-linecap="round" stroke-linejoin="round"/>
<path d="M95.9451 103.721C95.1526 100.353 93.3693 94.0122 88.0196 87.87C84.4531 83.9072 80.6885 81.3314 78.1127 79.9445" stroke="white" stroke-width="5" stroke-miterlimit="10" stroke-linecap="round" stroke-linejoin="round"/>
<path d="M115.759 68.056H159.35" stroke="white" stroke-width="5" stroke-miterlimit="10" stroke-linecap="round" stroke-linejoin="round"/>
<path d="M115.759 56.168H159.35" stroke="white" stroke-width="5" stroke-miterlimit="10" stroke-linecap="round" stroke-linejoin="round"/>
<path d="M115.759 79.9445H127.648" stroke="white" stroke-width="5" stroke-miterlimit="10" stroke-linecap="round" stroke-linejoin="round"/>
<path d="M41.8533 34.3728V42.2983" stroke="white" stroke-width="5" stroke-miterlimit="10" stroke-linecap="round" stroke-linejoin="round"/>
<path d="M57.1106 34.3728V42.2983" stroke="white" stroke-width="5" stroke-miterlimit="10" stroke-linecap="round" stroke-linejoin="round"/>
<path d="M72.3665 34.3728V42.2983" stroke="white" stroke-width="5" stroke-miterlimit="10" stroke-linecap="round" stroke-linejoin="round"/>
<path d="M87.6238 34.3728V42.2983" stroke="white" stroke-width="5" stroke-miterlimit="10" stroke-linecap="round" stroke-linejoin="round"/>
<path d="M102.88 34.3728V42.2983" stroke="white" stroke-width="5" stroke-miterlimit="10" stroke-linecap="round" stroke-linejoin="round"/>
<path d="M118.137 34.3728V42.2983" stroke="white" stroke-width="5" stroke-miterlimit="10" stroke-linecap="round" stroke-linejoin="round"/>
<path d="M133.393 34.3728V42.2983" stroke="white" stroke-width="5" stroke-miterlimit="10" stroke-linecap="round" stroke-linejoin="round"/>
<path d="M148.65 34.3728V42.2983" stroke="white" stroke-width="5" stroke-miterlimit="10" stroke-linecap="round" stroke-linejoin="round"/>
<path d="M163.907 34.3728V42.2983" stroke="white" stroke-width="5" stroke-miterlimit="10" stroke-linecap="round" stroke-linejoin="round"/>
</svg>
